Coordinates
version=1
nRows=30
nColumns=19
inDegrees=yes

Units are S.I. units (second, meters, Newtons, ...)
If the header above contains a line with 'inDegrees', this indicates whether rotational values are in degrees (yes) or radians (no).

endheader
time	pelvis_tilt	pelvis_list	pelvis_rotation	pelvis_tx	pelvis_ty	pelvis_tz	hip_flexion_r	hip_adduction_r	hip_rotation_r	knee_angle_r	knee_angle_r_beta	ankle_angle_r	hip_flexion_l	hip_adduction_l	hip_rotation_l	knee_angle_l	knee_angle_l_beta	ankle_angle_l
     16.82000000	     -3.49845069	     10.71529998	      3.49450929	      2.34563388	      0.99527980	      0.98420666	    -14.68432467	    -18.65465304	    -18.99724680	     70.19194648	      1.22508057	    -11.77704886	     26.92442623	     13.77410609	    -12.85822739	     11.29195764	      0.19708184	      2.71302577
     16.82666667	     -3.55847103	     11.23022813	      4.03131568	      2.34440710	      0.99137083	      0.98356980	    -12.75791140	    -19.61076218	    -18.75468342	     74.39867970	      1.29850192	    -11.11668159	     27.24528627	     14.08988980	    -13.88749389	     14.24493074	      0.24862094	      2.70786388
     16.83333333	     -3.44586540	     11.73172113	      4.49949549	      2.34297238	      0.98758121	      0.98321816	    -10.85095725	    -20.47608970	    -18.28830558	     78.43028295	      1.36886667	    -10.43612525	     27.40281369	     14.27612274	    -14.79160540	     17.51878039	      0.30576040	      2.82722307
     16.84000000	     -3.29463051	     12.08506813	      4.86125013	      2.34124601	      0.98381116	      0.98317085	     -8.73080610	    -21.09063767	    -17.47432385	     82.29480000	      1.43631522	     -9.74457840	     27.56996160	     14.19380959	    -15.53972092	     21.11159007	      0.36846676	      3.23647075
     16.84666667	     -3.02613282	     12.31495116	      5.09289452	      2.33923959	      0.98021892	      0.98344598	     -6.49397242	    -21.46950845	    -16.36309377	     85.95535390	      1.50020394	     -9.04636034	     27.58317382	     13.91180986	    -16.05776785	     24.80820035	      0.43298478	      3.99335813
     16.85333333	     -2.88864296	     12.45390089	      5.30320488	      2.33698189	      0.97663172	      0.98388523	     -3.91982404	    -21.69748075	    -15.08967024	     89.42456460	      1.56075308	     -8.33435880	     27.63232371	     13.57060432	    -16.23877203	     28.42404856	      0.49609323	      5.10042885
     16.86000000	     -2.28150291	     12.56094012	      5.34826414	      2.33440120	      0.97383064	      0.98464650	     -1.69286988	    -21.74418324	    -13.67626404	     92.56548428	      1.61557247	     -7.64919197	     27.01348527	     13.19363529	    -16.18289959	     31.79155905	      0.55486738	      6.61970451
     16.86666667	     -2.03217039	     12.48201362	      5.35557212	      2.33158171	      0.97100022	      0.98547093	      1.16454470	    -21.51882873	    -12.02923377	     95.50255399	      1.66683401	     -7.08134460	     26.61058847	     12.72018593	    -15.85643028	     34.87649748	      0.60870971	      8.49877420
     16.87333333	     -1.71468521	     12.41751450	      5.38660241	      2.32859576	      0.96865133	      0.98634352	      3.99409163	    -21.23910362	    -10.44348701	     98.11687623	      1.71246254	     -6.45042343	     25.87139705	     12.37229738	    -15.30952814	     37.52012371	      0.65484969	     10.59745690
     16.88000000	     -1.11471580	     12.29232176	      5.30636009	      2.32553412	      0.96713927	      0.98730921	      6.58796590	    -20.78079283	     -8.83389467	    100.33050318	      1.75109762	     -5.98546594	     24.54084089	     12.01602372	    -14.63794594	     39.65706955	      0.69214644	     12.95820346
     16.88666667	     -0.91768976	     12.06203757	      5.30236824	      2.32247963	      0.96570615	      0.98820384	      9.67283841	    -20.16132669	     -7.23901668	    102.24204012	      1.78446023	     -5.55444543	     23.35782972	     11.67351057	    -13.83695295	     41.29624229	      0.72075540	     15.38323151
     16.89333333	     -0.51687727	     11.73481633	      5.20367255	      2.31959815	      0.96508823	      0.98915970	     12.51251083	    -19.31936725	     -5.69858173	    103.70229282	      1.80994645	     -5.21482014	     21.63636668	     11.25610824	    -13.00621717	     42.38167311	      0.73969974	     17.82067663
     16.90000000	     -0.05963976	     11.41461772	      5.27760355	      2.31709138	      0.96514215	      0.98975072	     15.07359802	    -18.55318912	     -4.52700196	    104.69386223	      1.82725260	     -4.88662025	     19.48855507	     11.00668109	    -11.87684498	     42.85035444	      0.74787977	     20.16872382
     16.90666667	      0.19331571	     10.91099751	      5.31768667	      2.31502563	      0.96552640	      0.99033129	     17.78307173	    -17.48986286	     -3.39667186	    105.27530900	      1.83740076	     -4.62973779	     17.29311124	     10.57146799	    -10.78066978	     42.85372405	      0.74793858	     22.23455842
     16.91333333	      0.06575622	     10.00324604	      4.89896794	      2.31336221	      0.96590042	      0.99130810	     21.03843877	    -15.73697138	     -1.94152704	    105.49925408	      1.84130934	     -4.52125949	     15.38367223	      9.51531356	    -10.37042018	     42.59356566	      0.74339796	     24.04109751
     16.92000000	     -0.08089007	      9.26551031	      5.05982676	      2.31245436	      0.96696862	      0.99132310	     23.77026495	    -14.54872009	     -1.31995057	    105.20577932	      1.83618724	     -4.25388755	     13.11855510	      8.97157975	     -9.11256931	     41.68378972	      0.72751938	     25.29441688
     16.92666667	     -0.28379572	      8.14706421	      4.61082830	      2.31209705	      0.96826958	      0.99191669	     26.60586818	    -12.62938526	     -0.38396908	    104.51566648	      1.82414250	     -4.21415178	     10.82819022	      7.76529564	     -8.77019547	     40.57891402	      0.70823566	     26.32830547
     16.93333333	     -0.59330620	      7.02128829	      4.38254691	      2.31241981	      0.97003037	      0.99205793	     29.18525463	    -10.92476290	      0.08200645	    103.37636047	      1.80425786	     -4.07372789	      8.44136673	      6.68508391	     -8.13958259	     39.05961189	      0.68171883	     26.70297069
     16.94000000	     -0.82070304	      5.80271950	      4.07219642	      2.31340222	      0.97233451	      0.99213606	     31.40393319	     -9.17381172	      0.33986791	    101.80369702	      1.77680970	     -3.83414091	      5.82330723	      5.49833847	     -7.66507949	     37.23183586	      0.64981812	     26.46474602
     16.94666667	     -0.88929100	      4.55020055	      3.79432004	      2.31490109	      0.97526741	      0.99203063	     33.15282136	     -7.54096349	      0.30186500	     99.81612229	      1.74211998	     -3.57048232	      2.90404541	      4.29810504	     -7.19550607	     35.08742500	      0.61239109	     25.59201861
     16.95333333	     -1.88140646	      3.24448076	      3.73529138	      2.31678649	      0.97737289	      0.99170621	     35.70093467	     -6.12557485	     -0.04823522	     97.57017554	      1.70292081	     -3.25546587	      1.08756706	      3.10389264	     -6.62027306	     33.07304809	      0.57723358	     24.15649641
     16.96000000	     -1.44456941	      1.90074223	      3.07992489	      2.31909153	      0.98141887	      0.99200149	     36.45744945	     -4.30818849	     -0.16169584	     94.84080949	      1.65528439	     -2.92335275	     -2.52417116	      1.73876444	     -6.93341791	     30.50334402	      0.53238379	     21.98028110
     16.96666667	     -1.69228521	      0.65011555	      2.76664304	      2.32161296	      0.98485397	      0.99196155	     37.73007104	     -2.98767759	     -0.67978246	     91.87790292	      1.60357192	     -2.68405079	     -5.27870748	      0.55013644	     -6.97301172	     28.04859877	      0.48954040	     19.23105375
     16.97333333	     -1.97478342	     -0.52996155	      2.54936224	      2.32429637	      0.98832422	      0.99191314	     38.82050839	     -1.88552567	     -1.38157217	     88.63199393	      1.54692012	     -2.36697838	     -7.90553711	     -0.58027589	     -7.10102442	     25.64959494	      0.44766988	     15.96994309
     16.98000000	     -2.35298290	     -1.58065381	      2.30716707	      2.32700026	      0.99169565	      0.99202280	     39.84619297	     -0.97382704	     -2.13096937	     85.14575017	      1.48607368	     -2.07692657	    -10.30813140	     -1.58814903	     -7.44957831	     23.36682269	      0.40782799	     12.23966225
     16.98666667	     -2.90292870	     -2.45598811	      2.09982261	      2.32965014	      0.99482845	      0.99225629	     40.89173133	     -0.30775547	     -2.92751633	     81.43783605	      1.42135837	     -1.85037514	    -12.35266801	     -2.42248697	     -7.88880701	     21.28515543	      0.37149604	      8.18438828
     16.99333333	     -3.24226720	     -3.20540188	      1.97190281	      2.33228714	      0.99806254	      0.99247168	     41.50747046	      0.07249686	     -3.95368869	     77.49370122	      1.35252024	     -1.58651432	    -14.45807251	     -3.17095334	     -8.45461385	     19.38753126	      0.33837625	      3.91406554
     17.00000000	     -3.78859099	     -3.74273696	      1.82152347	      2.33473063	      1.00091180	      0.99289078	     42.20384778	      0.25484602	     -4.95847869	     73.35973935	      1.28036899	     -1.36934700	    -16.09115993	     -3.71881336	     -9.13065499	     17.85180105	      0.31157271	     -0.41209821
     17.00666667	     -4.32970643	     -4.13179301	      1.71361839	      2.33699695	      1.00355706	      0.99343783	     42.72207184	      0.25799618	     -6.07594790	     69.01978575	      1.20462251	     -1.14284552	    -17.45674400	     -4.16303159	     -9.85841428	     16.73160160	      0.29202154	     -4.61949021
     17.01333333	     -5.47801500	     -4.07633555	      1.62370118	      2.33863576	      1.00513904	      0.99437086	     43.84271487	     -0.06629747	     -6.93633743	     64.63823163	      1.12814996	     -0.80323331	    -17.57722406	     -4.29103868	    -10.57084767	     16.65750140	      0.29072824	     -8.47880086
